<svg width="21" height="21" viewBox="0 0 21 21" fill="none" xmlns="http://www.w3.org/2000/svg">
<g clip-path="url(#clip0_2009_12089)">
<g clip-path="url(#clip1_2009_12089)">
<g clip-path="url(#clip2_2009_12089)">
<path d="M15.0267 7.34029C12.7033 6.04079 8.97423 3.95411 3.19016 0.715467C2.8002 0.457927 2.35152 0.424177 1.96387 0.555389L11.8877 10.4792L15.0267 7.34029Z" fill="#32BBFF"/>
<path d="M1.9634 0.555664C1.89074 0.580273 1.82004 0.609961 1.75242 0.64582C1.32434 0.877383 1.00977 1.32297 1.00977 1.88653V19.0725C1.00977 19.6361 1.3243 20.0816 1.75242 20.3132C1.81992 20.349 1.89059 20.3788 1.96317 20.4036L11.8872 10.4795L1.9634 0.555664Z" fill="#32BBFF"/>
<path d="M11.887 10.4795L1.96289 20.4035C2.35066 20.5357 2.79934 20.5046 3.18942 20.2433C8.79873 17.1022 12.4858 15.0403 14.836 13.7297C14.9014 13.693 14.9655 13.657 15.0289 13.6215L11.887 10.4795Z" fill="#32BBFF"/>
<path d="M1.00977 10.4795V19.0725C1.00977 19.636 1.3243 20.0816 1.75242 20.3131C1.81992 20.349 1.89059 20.3788 1.96317 20.4035L11.8872 10.4795H1.00977Z" fill="#2C9FD9"/>
<path d="M3.18922 0.715934C2.72613 0.410153 2.18004 0.418864 1.75195 0.646051L11.7362 10.6303L15.0257 7.34075C12.7024 6.04126 8.9733 3.95457 3.18922 0.715934Z" fill="#29CC5E"/>
<path d="M11.7362 10.3291L1.75195 20.3133C2.18008 20.5404 2.72613 20.5536 3.18922 20.2434C8.79853 17.1024 12.4856 15.0404 14.8358 13.7299C14.9012 13.6931 14.9653 13.6572 15.0287 13.6216L11.7362 10.3291Z" fill="#D93F21"/>
<path d="M19.1698 10.4794C19.1698 10.0032 18.9295 9.5227 18.4533 9.25622C18.4533 9.25622 17.5627 8.7593 14.8329 7.23242L11.5859 10.4794L14.8361 13.7296C17.5359 12.2137 18.4533 11.7026 18.4533 11.7026C18.9295 11.4361 19.1698 10.9556 19.1698 10.4794Z" fill="#FFD500"/>
<path d="M18.4533 11.7027C18.9295 11.4362 19.1698 10.9557 19.1698 10.4795H11.5859L14.8361 13.7297C17.536 12.2138 18.4533 11.7027 18.4533 11.7027Z" fill="#FFAA00"/>
</g>
</g>
</g>
<defs>
<clipPath id="clip0_2009_12089">
<rect width="20" height="20" fill="white" transform="translate(0.0898438 0.480469)"/>
</clipPath>
<clipPath id="clip1_2009_12089">
<rect width="20" height="20" fill="white" transform="translate(0.0898438 0.480469)"/>
</clipPath>
<clipPath id="clip2_2009_12089">
<rect width="20" height="20" fill="white" transform="translate(0.0898438 0.480469)"/>
</clipPath>
</defs>
</svg>
