<svg width="1286" height="1075" viewBox="0 0 1286 1075" fill="none" xmlns="http://www.w3.org/2000/svg">
<path opacity="0.2" d="M644 1075C666.091 1075 684 1057.09 684 1035C684 1012.91 666.091 995 644 995C621.909 995 604 1012.91 604 1035C604 1057.09 621.909 1075 644 1075Z" fill="#FF18A2"/>
<path fill-rule="evenodd" clip-rule="evenodd" d="M662.366 1028.94C663.133 1024.09 659.223 1021.48 653.876 1019.74L655.612 1013.17L651.376 1012.18L649.681 1018.57C648.58 1018.31 647.447 1018.07 646.314 1017.82L646.294 1017.82L647.992 1011.38L643.761 1010.38L642.029 1016.95L633.491 1014.95L632.364 1019.22C632.364 1019.22 635.505 1019.9 635.44 1019.95C637.154 1020.35 637.466 1021.42 637.413 1022.27L632.661 1040.27C632.452 1040.76 631.92 1041.5 630.721 1041.21C630.764 1041.27 627.644 1040.49 627.644 1040.49L625.539 1045.07L634.067 1047.1L632.315 1053.75L636.544 1054.74L638.28 1048.17C639.438 1048.47 640.557 1048.74 641.654 1049L639.924 1055.54L644.161 1056.54L645.913 1049.9C653.134 1051.2 658.565 1050.67 660.847 1044.51C662.686 1039.55 660.755 1036.68 656.956 1034.81C659.722 1034.21 661.806 1032.49 662.362 1028.94L662.366 1028.94ZM652.688 1041.75C651.484 1046.3 643.934 1044.42 640.477 1043.56L640.477 1043.56C640.166 1043.48 639.888 1043.41 639.651 1043.36L641.977 1034.56C642.267 1034.62 642.62 1034.7 643.021 1034.78C646.595 1035.54 653.913 1037.09 652.687 1041.75L652.688 1041.75ZM643.748 1030.7C646.634 1031.43 652.906 1033.01 653.999 1028.87H653.998C655.117 1024.63 649.01 1023.36 646.026 1022.73C645.69 1022.66 645.394 1022.6 645.152 1022.54L643.044 1030.53C643.246 1030.58 643.482 1030.64 643.748 1030.7Z" fill="#FF18A2"/>
<path d="M610.749 1019.83L610.947 1019.53C611.114 1019.64 611.225 1019.76 611.28 1019.9C611.334 1020.04 611.335 1020.2 611.283 1020.38C611.219 1020.6 611.091 1020.76 610.899 1020.86C610.706 1020.96 610.479 1020.97 610.217 1020.89C609.94 1020.81 609.746 1020.68 609.635 1020.49C609.523 1020.3 609.501 1020.09 609.569 1019.86C609.628 1019.66 609.736 1019.51 609.893 1019.42C609.986 1019.36 610.105 1019.34 610.249 1019.34L610.232 1019.69C610.14 1019.69 610.06 1019.71 609.992 1019.76C609.924 1019.8 609.877 1019.87 609.851 1019.96C609.815 1020.09 609.83 1020.2 609.896 1020.3C609.962 1020.4 610.095 1020.48 610.293 1020.54C610.503 1020.6 610.664 1020.61 610.775 1020.56C610.887 1020.51 610.96 1020.42 610.995 1020.3C611.021 1020.21 611.015 1020.13 610.977 1020.05C610.939 1019.97 610.863 1019.89 610.749 1019.83ZM610.698 1019.22C610.529 1019.17 610.394 1019.11 610.294 1019.02C610.22 1018.96 610.159 1018.89 610.111 1018.8C610.062 1018.72 610.033 1018.63 610.023 1018.54C610.01 1018.43 610.022 1018.3 610.062 1018.16C610.133 1017.92 610.266 1017.75 610.461 1017.64C610.656 1017.54 610.889 1017.53 611.16 1017.61C611.428 1017.68 611.618 1017.82 611.727 1018.01C611.836 1018.2 611.855 1018.42 611.784 1018.66C611.712 1018.91 611.579 1019.08 611.386 1019.18C611.193 1019.29 610.963 1019.3 610.698 1019.22ZM610.788 1018.87C610.976 1018.93 611.132 1018.93 611.255 1018.87C611.377 1018.81 611.457 1018.71 611.496 1018.58C611.535 1018.44 611.519 1018.32 611.448 1018.21C611.376 1018.09 611.244 1018.01 611.051 1017.95C610.86 1017.9 610.706 1017.9 610.587 1017.95C610.469 1018.01 610.39 1018.11 610.35 1018.24C610.31 1018.38 610.325 1018.51 610.396 1018.62C610.466 1018.73 610.596 1018.82 610.788 1018.87ZM612.066 1017.58L610.402 1017.1L610.608 1016.39C610.66 1016.21 610.712 1016.09 610.766 1016.02C610.819 1015.95 610.891 1015.9 610.981 1015.87C611.072 1015.84 611.166 1015.84 611.265 1015.87C611.389 1015.91 611.482 1015.98 611.542 1016.07C611.602 1016.17 611.621 1016.3 611.6 1016.45C611.663 1016.39 611.727 1016.34 611.792 1016.31C611.856 1016.28 611.965 1016.24 612.118 1016.2L612.501 1016.09L612.384 1016.49L611.952 1016.63C611.797 1016.67 611.699 1016.71 611.656 1016.73C611.613 1016.75 611.58 1016.78 611.558 1016.81C611.534 1016.84 611.512 1016.9 611.489 1016.98L611.469 1017.04L612.164 1017.25L612.066 1017.58ZM611.204 1016.97L611.276 1016.72C611.323 1016.56 611.345 1016.45 611.343 1016.41C611.341 1016.37 611.327 1016.33 611.3 1016.3C611.274 1016.26 611.235 1016.24 611.185 1016.23C611.129 1016.21 611.08 1016.21 611.037 1016.23C610.994 1016.25 610.96 1016.29 610.935 1016.34C610.923 1016.37 610.897 1016.45 610.858 1016.58L610.782 1016.84L611.204 1016.97ZM612.554 1015.9L610.89 1015.42L611.249 1014.19L611.531 1014.27L611.27 1015.17L611.638 1015.27L611.881 1014.44L612.162 1014.52L611.919 1015.35L612.372 1015.49L612.642 1014.56L612.922 1014.64L612.554 1015.9Z" fill="#FF18A2"/>
<path opacity="0.2" d="M763 294C785.091 294 803 276.091 803 254C803 231.909 785.091 214 763 214C740.909 214 723 231.909 723 254C723 276.091 740.909 294 763 294Z" fill="#4F99CA"/>
<path fill-rule="evenodd" clip-rule="evenodd" d="M759.633 252.521C760.5 260.645 761.9 269.291 762.159 270.869C762.511 270.831 762.864 270.813 763.217 270.813H763.408C763.681 269.109 764.974 260.642 765.789 252.942C766.639 244.911 766.705 236.941 766.705 234.695V234.33C766.014 233.699 764.411 232.461 762.449 232.461C760.486 232.461 758.92 233.699 758.236 234.33V234.681C758.307 236.2 758.69 243.684 759.633 252.524V252.521V252.521ZM767.444 234.693C767.444 236.953 767.376 244.959 766.523 253.029L766.522 253.03C765.79 259.939 764.669 267.459 764.263 270.186L764.263 270.189C764.222 270.464 764.188 270.689 764.163 270.861C764.516 270.896 764.866 270.953 765.213 271.032C765.905 269.558 769.368 262.164 770.954 256.609C772.77 250.247 773.817 241.767 773.847 238.337V237.719C773.237 236.75 771.931 234.982 770.23 234.505C768.745 234.089 767.882 234.269 767.444 234.462V234.693ZM766.966 271.655C766.628 271.488 766.279 271.345 765.921 271.228H765.919C766.756 269.463 770.094 262.276 771.655 256.811C773.484 250.385 774.548 241.806 774.578 238.334V238.303C775.892 238.316 777.171 238.733 778.252 239.501C779.818 240.549 780.625 242.545 780.961 243.617L780.805 244.248C780.422 245.793 777.595 253.748 774.558 259.744C771.982 264.828 767.862 270.451 766.966 271.655ZM767.619 272.023C768.047 272.29 768.449 272.6 768.819 272.946L768.984 272.777L768.984 272.777L768.984 272.777C770.317 271.41 774.657 266.961 777.581 263.177C781.114 258.607 784.627 252.191 785.201 250.801L785.499 250.077C785.417 249.156 785.168 247.694 784.406 246.61C783.659 245.627 782.655 244.883 781.51 244.465C781.029 246.373 778.104 254.388 775.222 260.098C772.669 265.108 768.653 270.625 767.616 272.021H767.619L767.619 272.023ZM760.344 271.259C759.66 269.743 756.615 262.874 754.567 255.988C752.284 248.313 750.975 241.186 750.702 238.937C750.688 238.829 750.675 238.725 750.663 238.626L750.663 238.625L750.663 238.624L750.663 238.624C750.646 238.486 750.63 238.356 750.614 238.235C751.201 236.829 752.255 235.682 753.588 234.999C755.439 234.123 756.869 234.373 757.542 234.555V234.707C757.58 236.231 757.965 243.743 758.909 252.605C759.773 260.715 761.164 269.339 761.438 270.979C761.067 271.047 760.702 271.141 760.344 271.259ZM756.842 274.934C757.383 274.019 759.212 271.565 763.217 271.565V271.566V271.569C767.195 271.569 769.027 274.084 769.582 275.044C766.566 277.248 764.111 278.615 763.247 278.615C762.384 278.615 760.229 277.486 756.842 274.934ZM785.849 251.137C785.215 252.631 781.688 259.065 778.148 263.646C775.067 267.632 770.452 272.348 769.329 273.471C769.64 273.819 769.92 274.195 770.165 274.594C772.571 272.787 774.864 270.829 777.033 268.73C782.817 263.115 787.42 257.571 787.58 254.772C787.695 253.327 787.031 251.932 785.849 251.137ZM757.508 272.946C754.031 269.809 750.814 266.382 747.888 262.7C744.242 258.108 741.723 254.023 740.405 250.594C740.195 250.046 740.028 249.578 739.897 249.19C739.895 248.361 740.09 247.544 740.465 246.81C741.31 245.218 743.445 244.491 744.293 244.258V244.274L744.378 244.608L744.38 244.616C744.997 246.856 746.437 252.085 750.214 259.637C752.456 264.145 755.164 268.391 758.293 272.303C758.018 272.5 757.756 272.714 757.508 272.946ZM747.32 263.177C743.765 258.685 741.256 254.677 739.872 251.249C739.353 251.718 738.275 252.967 738.396 255.179C738.552 258.082 742.612 262.672 750.035 269.274C752.419 271.396 754.496 273.12 756.265 274.478C756.484 274.125 756.731 273.792 757.003 273.482C753.505 270.326 750.265 266.879 747.317 263.177H747.32L747.32 263.177ZM750.868 259.282C747.117 251.797 745.693 246.615 745.086 244.403L744.99 244.057C744.897 243.715 744.823 243.434 744.766 243.198C744.957 242.261 745.422 240.855 746.567 239.987C747.549 239.242 748.752 238.869 749.971 238.932V239.018C750.25 241.29 751.568 248.477 753.864 256.2C755.901 263.047 758.917 269.879 759.655 271.516C759.403 271.626 759.158 271.75 758.919 271.886C755.797 267.998 753.097 263.772 750.868 259.282Z" fill="url(#paint0_linear_335_1072)"/>
<g clip-path="url(#clip0_335_1072)">
<path opacity="0.2" d="M262.121 994.512C284.212 994.512 302.121 976.603 302.121 954.512C302.121 932.42 284.212 914.512 262.121 914.512C240.03 914.512 222.121 932.42 222.121 954.512C222.121 976.603 240.03 994.512 262.121 994.512Z" fill="#B166EE"/>
<path fill-rule="evenodd" clip-rule="evenodd" d="M269.09 963.247C270.066 963.247 270.857 962.456 270.857 961.481C270.857 960.506 270.066 959.715 269.09 959.715C268.115 959.715 267.324 960.506 267.324 961.481C267.324 962.456 268.115 963.247 269.09 963.247Z" fill="#A566EB"/>
<path fill-rule="evenodd" clip-rule="evenodd" d="M255.149 963.247C256.124 963.247 256.915 962.456 256.915 961.481C256.915 960.506 256.124 959.715 255.149 959.715C254.174 959.715 253.383 960.506 253.383 961.481C253.383 962.456 254.174 963.247 255.149 963.247Z" fill="#A566EB"/>
<path fill-rule="evenodd" clip-rule="evenodd" d="M237.504 954.51C237.504 940.922 248.532 929.895 262.119 929.895C275.707 929.895 286.735 940.922 286.735 954.51C286.735 968.098 275.707 979.125 262.119 979.125C248.532 979.125 237.504 968.098 237.504 954.51ZM261.008 947.54C261.008 944.304 258.385 941.681 255.149 941.681C251.914 941.681 249.291 944.304 249.291 947.54C249.291 950.775 251.914 953.398 255.149 953.398C258.385 953.398 261.008 950.775 261.008 947.54ZM261.008 961.48C261.008 964.716 258.385 967.338 255.149 967.338C251.914 967.338 249.291 964.715 249.291 961.48C249.291 958.245 251.914 955.622 255.149 955.622C259.612 955.622 263.23 952.003 263.23 947.54C263.23 944.305 265.853 941.682 269.089 941.682C272.324 941.682 274.947 944.305 274.947 947.54C274.947 950.776 272.324 953.399 269.089 953.399C264.626 953.399 261.008 957.017 261.008 961.48H261.008ZM263.23 961.48C263.23 964.715 265.853 967.338 269.089 967.338H269.089C272.325 967.338 274.947 964.715 274.947 961.48C274.947 958.245 272.324 955.622 269.089 955.622C265.853 955.622 263.23 958.245 263.23 961.48Z" fill="url(#paint1_linear_335_1072)"/>
<path fill-rule="evenodd" clip-rule="evenodd" d="M269.09 949.306C270.066 949.306 270.857 948.515 270.857 947.54C270.857 946.564 270.066 945.773 269.09 945.773C268.115 945.773 267.324 946.564 267.324 947.54C267.324 948.515 268.115 949.306 269.09 949.306Z" fill="#A566EB"/>
<path fill-rule="evenodd" clip-rule="evenodd" d="M255.149 949.306C256.124 949.306 256.915 948.515 256.915 947.54C256.915 946.564 256.124 945.773 255.149 945.773C254.174 945.773 253.383 946.564 253.383 947.54C253.383 948.515 254.174 949.306 255.149 949.306Z" fill="#A566EB"/>
</g>
<path opacity="0.2" d="M368 788C390.091 788 408 770.091 408 748C408 725.909 390.091 708 368 708C345.909 708 328 725.909 328 748C328 770.091 345.909 788 368 788Z" fill="#F7931A"/>
<path d="M366.127 730.51C367.34 730.174 368.246 729.932 368.842 729.783L367.417 724.069L370.858 723.211L372.323 729.088C373.527 728.904 374.614 728.819 375.583 728.833C376.551 728.848 377.481 728.987 378.37 729.254C379.259 729.519 380.025 729.972 380.667 730.613C381.31 731.254 381.803 732.075 382.149 733.079C383.122 735.842 382.647 738.091 380.722 739.827C382.574 739.827 384.077 740.304 385.232 741.255C386.387 742.206 387.136 743.786 387.481 745.995C387.652 747.125 387.653 748.157 387.483 749.091C387.312 750.026 387.004 750.838 386.558 751.527C386.113 752.216 385.504 752.851 384.731 753.432C383.959 754.013 383.12 754.507 382.216 754.914C381.314 755.322 380.259 755.708 379.053 756.075L380.536 762.022L377.094 762.88L375.634 757.026C374.443 757.324 373.532 757.542 372.902 757.682L374.368 763.56L370.926 764.418L369.443 758.47C369.175 758.537 368.772 758.634 368.233 758.76C367.695 758.887 367.285 758.984 367.002 759.055L362.532 760.169L362.16 755.728L364.641 755.109C365.386 754.924 365.719 754.42 365.641 753.597L363.303 744.221L363.66 744.132C363.567 744.139 363.446 744.16 363.297 744.197L361.628 737.503C361.171 736.494 360.376 736.13 359.244 736.413L356.763 737.031L355.809 733.206L360.553 732.048C361.506 731.811 362.226 731.622 362.714 731.484L361.249 725.607L364.69 724.748L366.127 730.51ZM372.412 744.773C372.04 744.866 371.561 744.993 370.977 745.155C370.392 745.318 370.04 745.414 369.921 745.443L371.887 753.327C372.006 753.297 372.283 753.233 372.717 753.132C373.151 753.032 373.51 752.948 373.793 752.877C374.076 752.806 374.468 752.696 374.968 752.547C375.469 752.397 375.897 752.257 376.252 752.127C376.607 751.997 377.015 751.825 377.477 751.611C377.937 751.397 378.324 751.185 378.636 750.975C378.947 750.765 379.261 750.514 379.575 750.221C379.889 749.928 380.126 749.622 380.284 749.302C380.441 748.982 380.546 748.624 380.599 748.231C380.651 747.838 380.623 747.425 380.514 746.989C380.375 746.429 380.139 745.959 379.807 745.579C379.475 745.2 379.11 744.912 378.712 744.713C378.314 744.515 377.827 744.384 377.25 744.322C376.672 744.259 376.148 744.238 375.678 744.256C375.208 744.274 374.639 744.341 373.972 744.458C373.305 744.575 372.785 744.68 372.412 744.773ZM369.321 734.135C369.003 734.222 368.603 734.33 368.121 734.459C367.638 734.588 367.345 734.665 367.24 734.691L369.026 741.851C369.1 741.833 369.359 741.773 369.8 741.671C370.242 741.569 370.588 741.483 370.84 741.412C371.091 741.341 371.459 741.232 371.945 741.086C372.431 740.94 372.83 740.796 373.142 740.652C373.454 740.508 373.817 740.326 374.229 740.108C374.641 739.89 374.967 739.656 375.205 739.407C375.443 739.158 375.667 738.878 375.875 738.57C376.083 738.263 376.21 737.913 376.255 737.522C376.299 737.131 376.267 736.718 376.159 736.282C376.031 735.769 375.824 735.338 375.539 734.988C375.255 734.637 374.946 734.367 374.614 734.178C374.282 733.988 373.87 733.859 373.378 733.792C372.887 733.725 372.445 733.699 372.053 733.714C371.662 733.729 371.188 733.781 370.633 733.87C370.077 733.959 369.639 734.047 369.321 734.135Z" fill="#F7931A"/>
<path fill-rule="evenodd" clip-rule="evenodd" d="M367.998 781.845C386.691 781.845 401.845 766.691 401.845 747.998C401.845 729.306 386.691 714.152 367.998 714.152C349.306 714.152 334.152 729.306 334.152 747.998C334.152 766.691 349.306 781.845 367.998 781.845Z" stroke="#F7931A" stroke-width="1.38125"/>
<path opacity="0.2" fill-rule="evenodd" clip-rule="evenodd" d="M251 361C273.091 361 291 343.091 291 321C291 298.909 273.091 281 251 281C228.909 281 211 298.909 211 321C211 343.091 228.909 361 251 361Z" fill="#83BD67"/>
<path fill-rule="evenodd" clip-rule="evenodd" d="M247.495 302.539C249.692 302.539 251.88 302.539 254.077 302.539C253.948 304.025 253.811 305.519 253.689 307.005C256.25 307.191 258.745 308.015 260.991 309.234C260.021 311.674 259.044 314.113 258.067 316.552C256.177 314.945 253.689 314.056 251.21 314.088C250.588 314.105 249.942 314.226 249.425 314.581C249.086 314.815 248.835 315.179 248.763 315.583C248.706 315.906 248.722 316.269 248.9 316.56C249.102 316.883 249.457 317.077 249.813 317.198C250.54 317.456 251.323 317.473 252.082 317.553C253.867 317.771 255.66 318.078 257.348 318.716C258.657 319.217 259.908 319.968 260.805 321.067C261.653 322.076 262.146 323.352 262.331 324.661C262.549 326.171 262.485 327.738 262.016 329.208C261.653 330.387 261.031 331.485 260.223 332.414C258.552 334.352 256.096 335.515 253.576 335.814C253.657 337.405 253.754 338.988 253.843 340.579C251.759 340.579 249.684 340.579 247.608 340.579C247.689 339.004 247.794 337.43 247.866 335.855C246.194 335.798 244.539 335.427 242.98 334.837C241.47 334.264 240.032 333.504 238.691 332.616C239.677 330.08 240.662 327.544 241.655 325C242.778 325.945 243.973 326.825 245.282 327.495C246.687 328.214 248.246 328.675 249.829 328.691C250.58 328.699 251.355 328.658 252.066 328.4C252.502 328.238 252.93 327.956 253.124 327.512C253.326 327.043 253.31 326.454 253.003 326.034C252.785 325.751 252.478 325.557 252.155 325.42C251.719 325.242 251.267 325.145 250.806 325.072C249.11 324.798 247.406 324.572 245.766 324.039C244.45 323.611 243.166 323.013 242.116 322.092C241.454 321.519 240.904 320.816 240.517 320.025C239.935 318.846 239.717 317.513 239.733 316.204C239.733 314.743 240.032 313.257 240.759 311.972C241.389 310.826 242.35 309.889 243.432 309.17C244.741 308.306 246.203 307.716 247.689 307.24C247.624 305.673 247.559 304.106 247.495 302.539Z" fill="#83BD67"/>
<path opacity="0.2" d="M1284.8 321.677C1279.46 343.106 1257.75 356.146 1236.32 350.803C1214.9 345.461 1201.86 323.756 1207.2 302.328C1212.54 280.897 1234.25 267.854 1255.67 273.197C1277.1 278.539 1290.14 300.247 1284.8 321.677H1284.8Z" fill="#F7931A"/>
<path d="M1247.94 294.281L1246.75 299.074C1247.54 299.257 1248.35 299.441 1249.13 299.636L1250.32 294.874L1253.3 295.616L1252.08 300.507C1255.84 301.802 1258.59 303.743 1258.05 307.354H1258.04C1257.65 309.997 1256.19 311.276 1254.24 311.727C1256.91 313.118 1258.27 315.251 1256.98 318.948C1255.37 323.539 1251.55 323.927 1246.48 322.966L1245.25 327.903L1242.27 327.161L1243.48 322.29C1242.71 322.098 1241.92 321.894 1241.11 321.674L1239.89 326.568L1236.92 325.827L1238.15 320.879C1237.45 320.701 1236.75 320.512 1236.03 320.331L1232.15 319.365L1233.63 315.956C1233.66 315.965 1235.82 316.539 1235.79 316.496C1236.64 316.705 1237.01 316.155 1237.16 315.789L1239.11 307.983L1239.42 308.062C1239.3 308.014 1239.19 307.983 1239.11 307.962L1240.5 302.391C1240.54 301.758 1240.32 300.96 1239.11 300.659C1239.16 300.628 1236.95 300.121 1236.95 300.121L1237.74 296.941L1241.85 297.967L1241.84 297.981C1242.46 298.135 1243.1 298.281 1243.75 298.429L1244.97 293.539L1247.94 294.281ZM1242.08 318.09C1244.1 318.592 1250.32 320.59 1251.24 316.893H1251.24C1252.2 313.037 1245.73 312.04 1243.71 311.536L1242.08 318.09ZM1244.46 308.535C1246.14 308.954 1251.32 310.663 1252.16 307.3C1253.04 303.792 1247.62 303.01 1245.94 302.591L1244.46 308.535Z" fill="#F7931A"/>
<path opacity="0.2" d="M1178 796C1200.09 796 1218 778.091 1218 756C1218 733.909 1200.09 716 1178 716C1155.91 716 1138 733.909 1138 756C1138 778.091 1155.91 796 1178 796Z" fill="#7310C1"/>
<path fill-rule="evenodd" clip-rule="evenodd" d="M1180.06 731.886C1178.62 731.235 1176.9 731.286 1175.47 731.931C1173.44 732.771 1171.4 733.58 1169.36 734.389C1167.79 735.014 1166.21 735.639 1164.64 736.279C1164.34 736.404 1164.03 736.52 1163.73 736.636C1162.63 737.048 1161.52 737.465 1160.68 738.314C1159.87 739.186 1159.43 740.306 1159 741.411C1158.91 741.642 1158.82 741.872 1158.72 742.099C1157.57 744.838 1156.42 747.582 1155.27 750.327C1155 750.99 1154.72 751.654 1154.44 752.317C1154.36 752.516 1154.27 752.713 1154.18 752.912C1153.85 753.645 1153.52 754.382 1153.38 755.183V756.735C1153.4 756.835 1153.41 756.981 1153.43 757.13C1153.45 757.31 1153.47 757.495 1153.49 757.614L1153.66 757.647C1153.95 758.464 1154.29 759.258 1154.63 760.052C1154.77 760.384 1154.91 760.715 1155.05 761.048C1155.33 761.662 1155.58 762.285 1155.84 762.908C1156.06 763.434 1156.27 763.96 1156.5 764.481C1156.82 765.209 1157.12 765.944 1157.42 766.679C1157.62 767.152 1157.81 767.625 1158.01 768.096C1158.38 768.912 1158.74 769.738 1159.06 770.577C1159.63 772.248 1160.59 773.84 1162.2 774.639C1163.46 775.093 1164.72 775.566 1165.93 776.156C1166.08 776.171 1166.38 776.201 1166.53 776.216L1166.56 776.4C1168.93 777.234 1171.25 778.198 1173.56 779.183C1173.68 779.213 1173.93 779.271 1174.05 779.298C1174.56 779.523 1175.06 779.733 1175.57 779.943C1175.97 780.106 1176.36 780.268 1176.75 780.439C1178.51 780.758 1180.17 780.104 1181.74 779.379C1182.4 779.061 1183.09 778.813 1183.78 778.565C1184.43 778.331 1185.08 778.096 1185.71 777.804C1185.76 777.787 1185.83 777.762 1185.91 777.735C1186.01 777.703 1186.11 777.669 1186.17 777.648C1188.68 776.601 1191.22 775.601 1193.76 774.634C1194.7 774.069 1195.64 773.36 1196.09 772.305C1196.97 770.33 1197.8 768.329 1198.63 766.328C1198.96 765.535 1199.29 764.742 1199.62 763.951C1199.99 763.002 1200.4 762.071 1200.81 761.141C1201.48 759.62 1202.16 758.099 1202.61 756.494V755.68C1202.02 753.658 1201.18 751.732 1200.35 749.805C1199.85 748.668 1199.36 747.531 1198.91 746.374C1198.49 745.423 1198.09 744.455 1197.7 743.488C1197.12 742.067 1196.54 740.647 1195.85 739.278C1195.1 737.845 1193.55 737.249 1192.14 736.702C1192.05 736.667 1191.96 736.633 1191.87 736.598C1189.73 735.734 1187.59 734.884 1185.45 734.034C1183.65 733.321 1181.85 732.608 1180.06 731.886ZM1171.95 743.531C1173.1 742.644 1174.49 742.144 1175.89 741.873C1179.28 741.348 1182.89 741.915 1185.87 743.701C1186.53 744.081 1187.22 744.52 1187.56 745.249C1188.2 746.592 1187.13 748.413 1185.64 748.386C1184.93 748.484 1184.32 748.109 1183.73 747.742C1183.56 747.633 1183.38 747.524 1183.2 747.429C1181.16 746.193 1178.69 745.718 1176.35 746.175C1175.19 746.449 1174.16 747.276 1173.75 748.428C1173.59 749.313 1173.56 750.363 1174.18 751.078C1174.95 752.055 1176.14 752.46 1177.27 752.844C1177.43 752.898 1177.59 752.952 1177.75 753.007C1178.37 753.19 1179.01 753.355 1179.65 753.521C1182 754.131 1184.37 754.749 1186.31 756.295C1187.98 757.531 1188.81 759.684 1188.72 761.753C1188.79 764.084 1187.78 766.435 1185.96 767.87C1184 769.447 1181.44 770.03 1178.98 769.967C1175.54 770.03 1172.14 768.827 1169.34 766.827C1168.68 766.358 1168 765.679 1168.02 764.798C1167.92 763.517 1169.13 762.346 1170.37 762.429C1171.07 762.425 1171.61 762.846 1172.15 763.259C1172.33 763.401 1172.51 763.542 1172.7 763.665C1175 765.32 1177.93 766.013 1180.72 765.586C1181.63 765.396 1182.55 765.029 1183.18 764.298C1184.34 763.147 1184.32 760.967 1183.02 759.94C1181.63 758.884 1179.9 758.463 1178.24 758.056C1178.16 758.036 1178.08 758.016 1178 757.996C1177.89 757.968 1177.79 757.941 1177.68 757.913C1175.19 757.256 1172.56 756.565 1170.66 754.69C1169.37 753.399 1168.84 751.518 1168.93 749.712C1168.81 747.301 1170.03 744.91 1171.95 743.531Z" fill="#7310C1"/>
<path fill-rule="evenodd" clip-rule="evenodd" d="M1175.89 741.875C1179.28 741.35 1182.89 741.918 1185.87 743.704C1186.53 744.083 1187.22 744.522 1187.56 745.251C1188.2 746.595 1187.13 748.416 1185.64 748.388C1184.71 748.516 1183.97 747.845 1183.2 747.431C1181.16 746.195 1178.69 745.72 1176.35 746.178C1175.19 746.451 1174.16 747.278 1173.75 748.431C1173.59 749.315 1173.56 750.365 1174.18 751.081C1175.05 752.196 1176.49 752.565 1177.75 753.01C1180.67 753.866 1183.85 754.331 1186.31 756.298C1187.98 757.533 1188.81 759.686 1188.72 761.756C1188.79 764.087 1187.78 766.438 1185.96 767.872C1184 769.449 1181.44 770.032 1178.98 769.969C1175.54 770.032 1172.14 768.829 1169.34 766.829C1168.68 766.36 1168 765.682 1168.02 764.8C1167.92 763.519 1169.13 762.348 1170.37 762.431C1171.31 762.426 1171.97 763.187 1172.7 763.667C1175.01 765.322 1177.93 766.016 1180.72 765.589C1181.63 765.398 1182.55 765.031 1183.18 764.3C1184.34 763.15 1184.32 760.969 1183.02 759.942C1181.56 758.834 1179.73 758.425 1178 757.998C1175.41 757.315 1172.64 756.647 1170.66 754.693C1169.37 753.401 1168.84 751.52 1168.93 749.714C1168.81 747.303 1170.03 744.912 1171.95 743.533C1173.1 742.646 1174.49 742.146 1175.89 741.875Z" fill="#FEFEFE"/>
<path opacity="0.2" d="M918 992C940.091 992 958 974.091 958 952C958 929.909 940.091 912 918 912C895.909 912 878 929.909 878 952C878 974.091 895.909 992 918 992Z" fill="#D96100"/>
<path d="M917.421 934.088L917.421 939.028C918.24 939.011 919.065 938.996 919.871 938.996L919.87 934.088L922.94 934.088L922.94 939.128C926.9 939.475 930.038 940.694 930.388 944.327L930.387 944.328C930.647 946.987 929.535 948.583 927.756 949.491C930.685 950.195 932.519 951.936 932.157 955.836C931.71 960.679 928.099 961.979 922.941 962.275L922.939 967.364L919.871 967.364L919.873 962.343C919.078 962.344 918.263 962.337 917.422 962.319L917.421 967.364L914.356 967.364L914.355 962.264C913.638 962.26 912.906 962.247 912.163 962.246L908.17 962.247L908.78 958.581C908.814 958.581 911.048 958.616 911.009 958.582C911.877 958.58 912.108 957.956 912.163 957.565L912.164 949.52L912.487 949.52C912.361 949.503 912.249 949.499 912.163 949.498L912.163 943.757C912.046 943.134 911.64 942.413 910.398 942.412C910.435 942.371 908.17 942.413 908.17 942.413L908.169 939.136L912.401 939.138L912.401 939.153C913.037 939.153 913.69 939.141 914.354 939.127L914.355 934.088L917.421 934.088ZM917.492 958.608C919.573 958.606 926.095 959.039 926.094 955.229L926.095 955.229C926.093 951.256 919.573 951.854 917.493 951.853L917.492 958.608ZM917.492 948.761C919.225 948.76 924.665 949.165 924.666 945.699C924.666 942.083 919.225 942.634 917.492 942.634L917.492 948.761Z" fill="#D96100"/>
<path opacity="0.2" d="M40 337C62.0914 337 80 319.091 80 297C80 274.909 62.0914 257 40 257C17.9086 257 0 274.909 0 297C0 319.091 17.9086 337 40 337Z" fill="#00CBA0"/>
<path fill-rule="evenodd" clip-rule="evenodd" d="M39.9833 336.892C62.0245 336.892 79.8924 319.024 79.8924 296.983C79.8924 274.942 62.0245 257.074 39.9833 257.074C17.9421 257.074 0.0742188 274.942 0.0742188 296.983C0.0742188 319.024 17.9421 336.892 39.9833 336.892Z" fill="#002352"/>
<path fill-rule="evenodd" clip-rule="evenodd" d="M23.7459 289.569H44.2733C44.2733 289.569 51.3586 289.503 46.4585 298.568C46.4585 298.568 42.8828 305.663 34.0096 305.531L38.7971 293.42C38.9129 293.126 38.8766 292.795 38.7 292.533C38.5234 292.271 38.2287 292.112 37.9111 292.106L31.6258 291.999L23.6797 311.18C23.6797 311.18 26.3284 311.443 27.7852 311.312L26.9906 313.283H30.7451C30.9561 313.282 31.1448 313.153 31.2192 312.957L31.8907 311.18L33.4799 311.049L32.5528 313.283H36.208C36.4801 313.282 36.7243 313.117 36.8239 312.866L37.8516 310.261C37.8516 310.261 48.9761 308.422 54.0086 299.488C54.0086 299.488 60.7628 289.109 52.8167 285.431C51.268 284.726 49.6121 284.282 47.9166 284.117L48.8516 281.849C48.909 281.71 48.8925 281.551 48.8078 281.426C48.723 281.301 48.581 281.226 48.4291 281.227H45.0017L43.9422 283.985H42.4854L43.3079 281.843C43.3615 281.703 43.3423 281.546 43.2566 281.423C43.1709 281.3 43.0296 281.226 42.8788 281.227H39.4355L38.376 283.985H27.6766C27.0896 283.984 26.55 284.305 26.2754 284.82L23.7459 289.569Z" fill="white"/>
<path opacity="0.2" d="M504.781 162C504.781 183.975 486.967 201.789 464.992 201.789C443.017 201.789 425.203 183.975 425.203 162C425.203 140.025 443.017 122.211 464.992 122.211C486.967 122.211 504.781 140.025 504.781 162" fill="#505050"/>
<g opacity="0.8">
<path d="M464.867 143.539L464.621 144.374V168.614L464.867 168.859L476.119 162.208L464.867 143.539Z" fill="white"/>
<path d="M464.869 143.539L453.617 162.208L464.869 168.859V157.094V143.539Z" fill="white"/>
<path d="M464.869 172.519L464.73 172.687V181.322L464.869 181.726L476.127 165.871L464.869 172.519Z" fill="white"/>
<path d="M464.869 181.727V172.519L453.617 165.871L464.869 181.727Z" fill="white"/>
<path d="M464.867 168.859L476.119 162.208L464.867 157.094V168.859Z" fill="white"/>
<path d="M453.617 162.208L464.869 168.859V157.094L453.617 162.208Z" fill="white"/>
</g>
<path opacity="0.2" d="M1026 435C1048.09 435 1066 417.091 1066 395C1066 372.909 1048.09 355 1026 355C1003.91 355 986 372.909 986 395C986 417.091 1003.91 435 1026 435Z" fill="#505050"/>
<path d="M1047.54 399.397L1026.43 410.387L1023.54 408.696L1007.67 399.397L1017.54 393.903L1026.43 399.397L1036.43 393.903L1047.54 399.397ZM1047.41 385.111L1026.3 396.101L1023.41 394.41L1007.54 385.111L1017.41 379.617L1026.3 385.111L1036.3 379.617L1047.41 385.111Z" fill="white"/>
<path opacity="0.2" d="M237 629C259.091 629 277 646.909 277 669C277 691.091 259.091 709 237 709C214.909 709 197 691.091 197 669C197 646.909 214.909 629 237 629ZM237.595 648.72C226.796 648.72 218.042 657.474 218.042 668.272C218.042 679.071 226.796 687.824 237.595 687.824C248.393 687.824 257.146 679.071 257.146 668.272C257.146 657.474 248.393 648.72 237.595 648.72Z" fill="black"/>
<path fill-rule="evenodd" clip-rule="evenodd" d="M237.001 641.309C221.707 641.309 209.309 653.707 209.309 669.001C209.309 684.295 221.707 696.693 237.001 696.693C252.295 696.693 264.693 684.295 264.693 669.001C264.693 653.707 252.295 641.309 237.001 641.309ZM248.249 661.24C248.325 665.862 244.296 667.16 244.296 667.16C244.296 667.16 245.938 665.573 245.862 661.508C245.785 657.442 242.73 655.434 242.73 655.434C242.73 655.434 248.173 656.618 248.249 661.24ZM224.554 683.222L230.131 682.955V654.956L224.554 654.689V655.147C224.554 655.147 227.967 656.025 227.967 661.093V676.385C227.967 682.369 224.554 682.713 224.554 682.713V683.222ZM239.044 683.241C236.618 683.26 232.117 682.929 232.117 682.929V654.995C233.23 654.98 234.071 654.915 234.817 654.857C236.06 654.76 237.038 654.684 238.566 654.899C241.01 655.243 243.112 657.63 243.685 660.018C244.258 662.405 243.647 664.678 242.863 665.919C242.079 667.16 240.361 668.02 240.361 668.02C240.361 668.02 242.959 668.898 243.876 669.662C244.793 670.426 246.569 672.508 245.881 677.034C245.194 681.561 241.469 683.222 239.043 683.241H239.044ZM248.018 675.386C248.134 679.956 245.49 682.21 245.49 682.21C245.49 682.21 250.578 680.777 250.521 675.334C250.464 669.891 245.49 668.669 245.49 668.669C245.49 668.669 247.902 670.817 248.018 675.386Z" fill="black"/>
<path fill-rule="evenodd" clip-rule="evenodd" d="M245.488 682.21C245.488 682.21 248.133 679.956 248.017 675.386C247.9 670.816 245.488 668.668 245.488 668.668C245.488 668.668 250.463 669.891 250.52 675.334C250.577 680.776 245.488 682.21 245.488 682.21" fill="white"/>
<path fill-rule="evenodd" clip-rule="evenodd" d="M239.044 683.242C236.618 683.261 232.117 682.93 232.117 682.93V654.996C235.084 654.957 236.122 654.556 238.566 654.9C241.011 655.244 243.112 657.631 243.685 660.019C244.258 662.406 243.647 664.679 242.863 665.92C242.079 667.161 240.361 668.021 240.361 668.021C240.361 668.021 242.959 668.899 243.876 669.663C244.793 670.427 246.569 672.509 245.881 677.035C245.194 681.562 241.469 683.223 239.044 683.242" fill="white"/>
<path fill-rule="evenodd" clip-rule="evenodd" d="M230.132 682.953L224.555 683.221V682.711C224.555 682.711 227.967 682.367 227.967 676.383V661.092C227.967 656.024 224.555 655.146 224.555 655.146V654.688L230.132 654.954V682.953" fill="white"/>
<path fill-rule="evenodd" clip-rule="evenodd" d="M248.25 661.239C248.326 665.861 244.296 667.16 244.296 667.16C244.296 667.16 245.939 665.573 245.862 661.507C245.786 657.442 242.73 655.434 242.73 655.434C242.73 655.434 248.174 656.617 248.25 661.239" fill="white"/>
<path d="M240.456 665.814C242.238 663.497 241.678 659.136 239.52 657.645C237.362 656.154 235.089 656.901 234.65 657.32C234.21 657.74 234.231 667.521 234.231 667.521C234.231 667.521 238.673 668.133 240.456 665.814" fill="black"/>
<path d="M240.788 669.979C239.12 669.254 234.231 669.445 234.231 669.445C234.231 669.445 234.155 671.914 234.333 676.537C234.51 681.159 236.09 681.134 237.732 681.197C239.375 681.26 242.507 681.146 243.539 677.16C244.57 673.175 242.456 670.706 240.788 669.98" fill="black"/>
<path opacity="0.2" d="M1193 80C1215.09 80 1233 62.0914 1233 40C1233 17.9086 1215.09 0 1193 0C1170.91 0 1153 17.9086 1153 40C1153 62.0914 1170.91 80 1193 80Z" fill="#6CB0FD"/>
<path fill-rule="evenodd" clip-rule="evenodd" d="M1191.18 12.3086H1195.16C1198.74 12.5467 1202.27 13.6944 1205.28 15.7462C1209.09 18.2628 1211.98 21.9669 1214.5 25.8098C1213.02 24.8009 1211.69 23.5794 1210.18 22.6102C1205.13 19.1272 1199.07 16.8005 1192.95 17.4523C1187.35 18.0078 1182.19 20.9155 1177.98 24.7244C1174.51 27.8645 1172.14 32.4215 1171.97 37.2734C1171.71 43.6669 1174.26 49.7402 1177.32 55.1276C1175.63 54.6685 1173.99 53.9628 1172.57 52.9001C1169.7 50.8171 1167.79 47.5637 1166.79 44.1062C1165.32 38.9568 1164.96 33.2462 1166.91 28.1762C1168.57 23.6305 1171.88 20.0114 1175.47 17.0386C1180 13.5896 1185.73 12.677 1191.18 12.3086Z" fill="#6CB0FD"/>
<path fill-rule="evenodd" clip-rule="evenodd" d="M1178.68 34.2718C1178.86 31.3584 1181.12 28.7398 1183.95 28.5896C1190.17 28.5697 1196.38 28.5811 1202.6 28.5839C1202.6 31.1317 1200.87 33.5434 1198.5 34.1754C1196.81 34.5608 1195.06 34.4418 1193.34 34.3851C1193.29 38.7353 1193.37 43.0855 1193.3 47.4329C1193.18 50.9669 1190.16 53.9341 1186.81 53.9738C1187.21 47.4641 1187.53 40.9487 1187.99 34.4446C1185.21 34.4248 1182.43 34.4361 1179.65 34.4446C1179.31 34.439 1178.99 34.3795 1178.68 34.2718Z" fill="#6CB0FD"/>
<path fill-rule="evenodd" clip-rule="evenodd" d="M1205.6 24.6367C1209.28 26.8458 1212.71 29.7314 1214.81 33.6166C1217.32 38.0541 1217.89 43.4553 1217.01 48.456C1215.88 54.3294 1212 59.2308 1207.37 62.6383C1203.24 65.8856 1198.07 67.5342 1192.91 67.6916H1191.48C1189.29 67.5866 1187.11 67.3409 1184.96 66.8521C1182.26 66.2612 1179.52 65.5101 1177.21 63.8837C1173.32 61.2024 1170.64 57.077 1168.61 52.8024C1171.38 55.1689 1174.29 57.3835 1177.5 59.0706C1181.98 61.4896 1187.16 62.8205 1192.2 61.9756C1197.67 61.103 1202.53 57.8777 1206.4 53.9097C1209.49 50.6624 1211.75 46.3712 1211.82 41.7432C1212.04 35.4418 1209.03 29.632 1205.6 24.6367Z" fill="#2B2E7C"/>
<defs>
<linearGradient id="paint0_linear_335_1072" x1="732.8" y1="251.179" x2="758.429" y2="283.503" gradientUnits="userSpaceOnUse">
<stop stop-color="white"/>
<stop offset="0.16" stop-color="#D5AC51"/>
<stop offset="0.18" stop-color="#D2A644"/>
<stop offset="0.26" stop-color="#CC9B2E"/>
<stop offset="0.29" stop-color="#E6DE5F"/>
<stop offset="0.45" stop-color="#9D9A62"/>
<stop offset="0.63" stop-color="#787864"/>
<stop offset="0.7" stop-color="#517E69" stop-opacity="0.96"/>
<stop offset="0.89" stop-color="#4F99CA"/>
</linearGradient>
<linearGradient id="paint1_linear_335_1072" x1="256.356" y1="924.805" x2="232.477" y2="960.278" gradientUnits="userSpaceOnUse">
<stop stop-color="#C764F5"/>
<stop offset="1" stop-color="#7C6CDF"/>
</linearGradient>
<clipPath id="clip0_335_1072">
<rect width="80" height="80" fill="white" transform="translate(222 915)"/>
</clipPath>
</defs>
</svg>
